<?xml version="1.0" encoding="utf-8"?>
<!-- Generator: Adobe Illustrator 23.0.1, SVG Export Plug-In . SVG Version: 6.00 Build 0)  -->
<svg version="1.1" id="Layer_1" xmlns="http://www.w3.org/2000/svg" xmlns:xlink="http://www.w3.org/1999/xlink" x="0px" y="0px"
	 viewBox="0 0 384 512" style="enable-background:new 0 0 384 512;" xml:space="preserve">
<style type="text/css">
	.st0{fill:#FFFFFF;}
</style>
<path class="st0" d="M369.8,98l-83.9-83.9c-9-9-21.2-14.1-33.9-14.1H48C21.5,0.1,0,21.6,0,48.1V464c0,26.5,21.5,48,48,48h287.9
	c26.5,0,48.1-21.5,48.1-48V132C384,119.3,378.8,107,369.8,98z M255.9,52l76.1,76.1h-76.1L255.9,52L255.9,52z M336,464H48V48.1h160
	v104c0,13.3,10.7,24,24,24h104V464z M208,216c0-4.4-3.6-8-8-8h-16c-4.4,0-8,3.6-8,8v24.1c-23.6,0.6-42.7,20.5-42.7,45.1
	c0,20,13,37.8,31.6,43.4l45,13.5c5.2,1.5,8.8,6.8,8.8,12.7c0,7.3-5.3,13.2-11.8,13.2h-28.1c-4.6,0-9-1.3-12.8-3.7
	c-3.2-2-7.4-1.9-10.1,0.7l-11.8,11.2c-3.5,3.4-3.3,9.2,0.6,12.1c9.1,6.8,20.1,10.8,31.4,11.4V424c0,4.4,3.6,8,8,8h16
	c4.4,0,8-3.6,8-8v-24.1c23.6-0.6,42.7-20.5,42.7-45.1c0-20-13-37.8-31.6-43.4l-45-13.5c-5.2-1.5-8.8-6.8-8.8-12.7
	c0-7.3,5.3-13.2,11.8-13.2h28.1c4.6,0,9,1.3,12.8,3.7c3.2,2,7.4,1.9,10.1-0.7l11.8-11.2c3.5-3.4,3.3-9.2-0.6-12.1
	c-9.1-6.8-20.1-10.8-31.4-11.4V216z M88,112h80c4.4,0,8-3.6,8-8V88c0-4.4-3.6-8-8-8H88c-4.4,0-8,3.6-8,8v16
	C80,108.4,83.6,112,88,112z M176,168v-16c0-4.4-3.6-8-8-8H88c-4.4,0-8,3.6-8,8v16c0,4.4,3.6,8,8,8h80C172.4,176,176,172.4,176,168z"
	/>
</svg>
