<?xml version="1.0" encoding="utf-8"?>
<!-- Generator: Adobe Illustrator 21.1.0, SVG Export Plug-In . SVG Version: 6.00 Build 0)  -->
<svg version="1.1" id="Layer_1" xmlns="http://www.w3.org/2000/svg" xmlns:xlink="http://www.w3.org/1999/xlink" x="0px" y="0px"
	 viewBox="0 0 570.5 92.5" style="enable-background:new 0 0 570.5 92.5;" xml:space="preserve">
<style type="text/css">
	.st0{fill:#FFFFFF;}
</style>
<title>AM_Logo</title>
<g id="Layer_2">
	<g id="Layer_1-2">
		<path class="st0" d="M15.3,29.7H1.6c1.6-10.1,8.8-15,21.3-15c15,0,22.7,4.9,23,15v18.5c0,15-9.1,21.7-23.8,22.8
			C9.1,72,0,66,0,53.9C0.3,40.9,9.8,37.4,23.6,36c5.9-0.7,8.8-2.5,8.8-5.5c-0.3-3.1-3.2-4.6-8.9-4.6C18.7,25.9,16.1,27.2,15.3,29.7z
			 M32.6,47.7v-5c-3.5,1.4-7.2,2.5-10.9,3.3c-5.5,1-8.2,3.6-8.2,7.6c0.3,4.3,2.6,6.4,6.9,6.4C28,59.9,32.6,55.4,32.6,47.7z"/>
		<path class="st0" d="M63.1,84.5c0,4.5-2.3,6.8-6.8,6.8h-6.9V39.2c0.7-16.2,9.2-24.3,25.5-24.3c16.9,0,25.3,9.2,25.3,27.5
			c0,18.5-7.2,28.1-21.7,28.6c-6.8,0-11.9-2.8-15.4-8.4L63.1,84.5z M74.7,58.8c7.4,0,11.2-5.2,11.5-15.8c0-11-3.9-16.5-11.7-16.5
			S63,32,63.1,43C63.5,53.5,67.3,58.8,74.7,58.8z"/>
		<path class="st0" d="M117.7,84.5c0,4.5-2.3,6.8-6.8,6.8H104V39.2c0.7-16.3,9.2-24.3,25.5-24.3c16.9,0,25.3,9.2,25.3,27.5
			c0,18.5-7.2,28.1-21.7,28.6c-6.8,0-11.9-2.8-15.4-8.4L117.7,84.5z M129.3,58.8c7.4,0,11.2-5.2,11.5-15.8c0-11-3.9-16.5-11.7-16.5
			S117.5,32,117.7,43C118.1,53.5,121.9,58.8,129.3,58.8L129.3,58.8z"/>
		<path class="st0" d="M277.7,71.2C261.3,70.7,253,61.1,253,42.6s8.3-27.8,24.9-27.9c17.3,0,25.4,10.6,24.4,31.9h-35.2
			c0.5,8.3,4.1,12.6,10.8,12.6c3.4-0.1,6.5-1.5,8.9-3.9c1.2-1.3,2.9-2,4.6-2h10.1C298.5,64.8,291.1,71.2,277.7,71.2z M267.3,36.8
			h20.5c-0.8-7.2-4.2-10.9-10.1-10.9S268.4,29.6,267.3,36.8L267.3,36.8z"/>
		<path class="st0" d="M357,6.9v39.5c0,16.4-8.5,24.5-25.5,24.4c-16.9-0.3-25.3-9.5-25.3-27.6c0-18.5,7.2-28,21.7-28.5
			c6.8,0,12,2.8,15.5,8.4V0h6.8C354,0.1,357,3.1,357,6.9z M320.3,42.6c-0.1,11,3.6,16.6,11.4,16.6s11.7-5.6,11.7-16.6
			c-0.3-10.5-4.1-15.6-11.5-15.6S320.7,32.1,320.3,42.6z"/>
		<path class="st0" d="M367.8,0c4.5,0,6.7,2.3,6.6,6.7v4h-13.7V0H367.8z M367.8,15.5c4.4,0,6.6,2.2,6.6,6.6V70h-13.7V15.5H367.8z"/>
		<path class="st0" d="M393.5,29.7h-13.7c1.6-10.1,8.8-15,21.3-15c15,0,22.6,4.9,23,15v18.5c0,15-9.1,21.7-23.8,22.8
			c-13.1,1-22.1-5-22.1-17.1c0.3-13.1,9.8-16.6,23.6-17.9c5.9-0.7,8.9-2.5,8.9-5.5c-0.3-3.1-3.2-4.6-8.9-4.6
			C396.9,25.9,394.2,27.2,393.5,29.7z M410.8,47.7v-5c-3.5,1.4-7.2,2.5-10.9,3.3c-5.5,1-8.2,3.6-8.2,7.6c0.3,4.3,2.6,6.4,6.9,6.4
			C406.1,59.9,410.8,55.4,410.8,47.7L410.8,47.7z"/>
		<path class="st0" d="M442.9,25.3h-1.4v30.2c0,2.3,1.3,3.5,4,3.5h4.2v10.4c-4.8,0.4-9.6,0.4-14.4-0.1c-5.1-0.5-7.6-3.7-7.5-9.8V0
			h7.1c3.7,0.2,6.6,3.2,6.6,6.9v8.6h8.2v3c0.1,3.7-2.9,6.7-6.5,6.8C443.1,25.3,443,25.3,442.9,25.3z"/>
		<path class="st0" d="M460.5,0c4.5,0,6.7,2.3,6.6,6.7v4h-13.7V0H460.5z M460.5,15.5c4.4,0,6.6,2.2,6.6,6.6V70h-13.7V15.5H460.5z"/>
		<path class="st0" d="M520.4,43c0,18.7-8.3,28.2-24.8,28.2s-24.7-9.5-24.7-28.2c0-18.9,8.2-28.3,24.7-28.3
			C512,14.7,520.4,24.1,520.4,43z M484.7,43c0.1,10.6,3.7,16,10.7,16s10.5-5.6,10.6-16.4c0-10.6-3.5-15.9-10.5-15.9
			C488.3,26.8,484.7,32.2,484.7,43z"/>
		<path class="st0" d="M563.5,70c-4.5-0.3-6.8-2.5-6.8-6.8v-28c-0.3-5.7-3.4-8.4-9.5-8.4s-9.2,2.8-9.3,8.4V70h-13.9V38
			c0-15.5,7.8-23.3,23.4-23.3s23.2,7.7,23,23.3v32H563.5z"/>
		<path class="st0" d="M229.1,74.2c-3.5-3.5-5.2-8.7-5.2-15.5V36.9c-0.3-3.3-2.1-4.7-5.9-4.7s-5.8,1.5-5.8,5.2v30h-14.8V37.1
			c-0.2-3.6-1.9-5.2-6-5.2s-5.8,1.5-5.8,5.2v30.2h-14.9v-28c0-13.6,7.2-20.8,20.9-20.8c5.5,0,9.9,1.1,13.3,3.4
			c3.4-2.2,7.7-3.2,13.3-3.2c6.8,0,12.1,1.8,15.6,5.3s5.2,8.7,5.2,15.5v21.8c0.3,3.3,2.1,4.7,5.9,4.7h0.3
			c10.5-22.8,0.6-49.8-22.2-60.3S173.1,5.2,162.6,28s-0.6,49.8,22.2,60.3c17.6,8.1,38.5,4.2,51.9-9.9
			C233.9,77.7,231.3,76.2,229.1,74.2z"/>
	</g>
</g>
</svg>
