<svg xmlns="http://www.w3.org/2000/svg" xmlns:xlink="http://www.w3.org/1999/xlink" viewBox="0 0 570.5 92.5"><defs><style>.cls-1{fill:url(#linear-gradient);}.cls-2{fill:url(#linear-gradient-2);}.cls-3{fill:url(#linear-gradient-3);}.cls-4{fill:url(#linear-gradient-4);}.cls-5{fill:url(#linear-gradient-5);}.cls-6{fill:url(#linear-gradient-6);}.cls-7{fill:url(#linear-gradient-7);}.cls-8{fill:url(#linear-gradient-8);}.cls-9{fill:url(#linear-gradient-9);}.cls-10{fill:url(#linear-gradient-10);}.cls-11{fill:url(#linear-gradient-11);}.cls-12{fill:url(#linear-gradient-12);}</style><linearGradient id="linear-gradient" x1="160.2" y1="42.93" x2="158.55" y2="42.93" gradientUnits="userSpaceOnUse"><stop offset="0" stop-color="#e52e5d"/><stop offset="1" stop-color="#81277c"/></linearGradient><linearGradient id="linear-gradient-2" x1="158.63" y1="53.11" x2="156.99" y2="53.11" xlink:href="#linear-gradient"/><linearGradient id="linear-gradient-3" x1="157.32" y1="53.11" x2="155.67" y2="53.11" xlink:href="#linear-gradient"/><linearGradient id="linear-gradient-4" x1="166.41" y1="42.97" x2="164.76" y2="42.97" xlink:href="#linear-gradient"/><linearGradient id="linear-gradient-5" x1="165.09" y1="35.41" x2="163.44" y2="35.41" xlink:href="#linear-gradient"/><linearGradient id="linear-gradient-6" x1="163.77" y1="35" x2="162.12" y2="35" xlink:href="#linear-gradient"/><linearGradient id="linear-gradient-7" x1="162.46" y1="42.93" x2="160.81" y2="42.93" xlink:href="#linear-gradient"/><linearGradient id="linear-gradient-8" x1="161.14" y1="34.84" x2="159.5" y2="34.84" xlink:href="#linear-gradient"/><linearGradient id="linear-gradient-9" x1="159.83" y1="35" x2="158.18" y2="35" xlink:href="#linear-gradient"/><linearGradient id="linear-gradient-10" x1="158.51" y1="42.97" x2="156.87" y2="42.97" xlink:href="#linear-gradient"/><linearGradient id="linear-gradient-11" x1="157.2" y1="42.36" x2="155.55" y2="42.36" xlink:href="#linear-gradient"/><linearGradient id="linear-gradient-12" x1="249.32" y1="47.11" x2="158.53" y2="47.11" xlink:href="#linear-gradient"/></defs><title>AM_Logo</title><g id="Layer_2" data-name="Layer 2"><g id="Layer_1-2" data-name="Layer 1"><path class="cls-1" d="M15.34,29.75H1.65c1.65-10.09,8.75-15,21.31-15,15,0,22.65,4.94,23,15V48.28c0,15-9.06,21.72-23.78,22.75C9.06,72.05,0,66,0,53.94.31,40.86,9.78,37.36,23.57,36c5.87-.72,8.85-2.47,8.85-5.46-.31-3.09-3.19-4.63-8.85-4.63C18.73,25.94,16.06,27.17,15.34,29.75ZM32.63,47.66v-5a59.26,59.26,0,0,1-10.91,3.29c-5.46,1-8.23,3.6-8.23,7.62.31,4.32,2.57,6.38,6.9,6.38C28,59.91,32.63,55.38,32.63,47.66Z"/><path class="cls-2" d="M63.07,84.51q0,6.79-6.79,6.79h-6.9V39.22C50.1,23,58.54,14.93,74.91,14.93q25.32,0,25.32,27.48c0,18.53-7.21,28.1-21.72,28.62-6.79,0-11.94-2.78-15.44-8.44ZM74.71,58.77c7.41,0,11.22-5.25,11.53-15.75,0-11-3.91-16.47-11.73-16.47S63,32,63.07,43C63.49,53.53,67.29,58.77,74.71,58.77Z"/><path class="cls-3" d="M117.65,84.51q0,6.79-6.79,6.79H104V39.22c.72-16.26,9.16-24.29,25.53-24.29q25.32,0,25.32,27.48c0,18.53-7.21,28.1-21.72,28.62-6.79,0-11.94-2.78-15.44-8.44Zm11.63-25.73c7.41,0,11.22-5.25,11.53-15.75,0-11-3.91-16.47-11.73-16.47S117.54,32,117.65,43C118.06,53.53,121.87,58.77,129.28,58.77Z"/><path class="cls-4" d="M277.74,71.23C261.27,70.71,253,61.14,253,42.61s8.34-27.79,24.91-27.9c17.29,0,25.42,10.6,24.39,31.91h-35.2c.51,8.34,4.12,12.56,10.81,12.56a12.64,12.64,0,0,0,8.85-3.91,6,6,0,0,1,4.63-2h10.09C298.54,64.85,291.13,71.23,277.74,71.23Zm-10.4-34.38h20.48c-.82-7.21-4.22-10.91-10.09-10.91S268.38,29.64,267.35,36.85Z"/><path class="cls-5" d="M357,6.9V46.42c0,16.37-8.54,24.5-25.53,24.39-16.88-.31-25.32-9.47-25.32-27.59,0-18.53,7.21-28,21.72-28.51,6.79,0,12,2.78,15.54,8.44V0h6.79A6.94,6.94,0,0,1,357,6.9ZM320.26,42.61c-.1,11,3.6,16.57,11.43,16.57s11.73-5.56,11.73-16.57C343.11,32.11,339.3,27,331.89,27S320.67,32.11,320.26,42.61Z"/><path class="cls-6" d="M367.83,0c4.53,0,6.69,2.26,6.59,6.69v4H360.73V0Zm0,15.54c4.43,0,6.59,2.16,6.59,6.59V70H360.73V15.54Z"/><path class="cls-7" d="M393.48,29.75H379.79c1.65-10.09,8.75-15,21.31-15,15,0,22.65,4.94,23,15V48.28c0,15-9.06,21.72-23.78,22.75-13.07,1-22.13-5-22.13-17.09.31-13.07,9.78-16.57,23.57-17.91,5.87-.72,8.85-2.47,8.85-5.46-.31-3.09-3.19-4.63-8.85-4.63C396.88,25.94,394.2,27.17,393.48,29.75Zm17.29,17.91v-5a59.25,59.25,0,0,1-10.91,3.29c-5.45,1-8.23,3.6-8.23,7.62.31,4.32,2.57,6.38,6.9,6.38C406.14,59.91,410.78,55.38,410.78,47.66Z"/><path class="cls-8" d="M442.91,25.32h-1.44V55.48c0,2.26,1.34,3.5,4,3.5h4.22v10.4a75.24,75.24,0,0,1-14.41-.1c-5.15-.52-7.62-3.71-7.51-9.78V0h7.1a6.91,6.91,0,0,1,6.59,6.9v8.65h8.24v3A6.66,6.66,0,0,1,442.91,25.32Z"/><path class="cls-9" d="M460.53,0c4.53,0,6.69,2.26,6.59,6.69v4H453.43V0Zm0,15.54c4.43,0,6.59,2.16,6.59,6.59V70H453.43V15.54Z"/><path class="cls-10" d="M520.36,43c0,18.73-8.34,28.2-24.81,28.2s-24.7-9.47-24.7-28.2c0-18.94,8.23-28.31,24.7-28.31S520.36,24.09,520.36,43Zm-35.62,0c.1,10.6,3.71,16,10.7,16s10.5-5.56,10.6-16.37c0-10.6-3.5-15.85-10.5-15.85C488.34,26.76,484.74,32.22,484.74,43Z"/><path class="cls-11" d="M563.5,70c-4.53-.31-6.79-2.47-6.79-6.79v-28c-.31-5.66-3.4-8.44-9.47-8.44s-9.16,2.78-9.26,8.44V70h-13.9V38c0-15.54,7.82-23.26,23.37-23.26S570.61,22.44,570.5,38V70Z"/><path class="cls-12" d="M229.14,74.18c-3.48-3.5-5.22-8.72-5.18-15.53V36.88c-.32-3.32-2.06-4.74-5.95-4.74s-5.77,1.55-5.83,5.2v30H197.37V37.13c-.2-3.63-1.94-5.15-6-5.15s-5.76,1.54-5.83,5.17V67.38H170.65v-28c0-13.62,7.23-20.81,20.89-20.81,5.54,0,9.92,1.11,13.34,3.4,3.38-2.17,7.74-3.23,13.3-3.23,6.83,0,12.06,1.78,15.55,5.29s5.22,8.72,5.18,15.53V61.35c.32,3.32,2.06,4.74,5.95,4.74l.31,0a45.47,45.47,0,1,0-8.42,12.37A17,17,0,0,1,229.14,74.18Z"/></g></g></svg>