<svg xmlns="http://www.w3.org/2000/svg" xmlns:xlink="http://www.w3.org/1999/xlink" viewBox="0 0 202 248.05"><defs><style>.cls-1{fill:#f9f9f9;}.cls-2{fill:#fff;}.cls-11,.cls-3{fill:#cfd8dc;}.cls-4{fill:#eceff1;}.cls-5{fill:#546e7a;}.cls-6{fill:#e52e5d;}.cls-7{fill:url(#linear-gradient);}.cls-8{fill:none;stroke:#39a2f0;stroke-miterlimit:10;}.cls-9{fill:#39a2f0;}.cls-10{fill:#b6d9ef;}.cls-11{font-size:4px;font-family:OpenSans-Extrabold, Open Sans;font-weight:700;letter-spacing:-0.05em;}.cls-12{fill:#22a7f0;}.cls-13,.cls-14{isolation:isolate;}.cls-14{font-size:4.62px;fill:#2e3c54;font-family:FontAwesome, FontAwesome;}.cls-15{fill:#b3b3b3;}.cls-16{fill:#37485f;}</style><linearGradient id="linear-gradient" x1="42.29" y1="25.02" x2="12.29" y2="25.02" gradientUnits="userSpaceOnUse"><stop offset="0.69" stop-color="#e52e5d"/><stop offset="0.69" stop-color="#81277c"/></linearGradient></defs><title>adformats_1</title><g id="Layer_2" data-name="Layer 2"><g id="Layer_1-2" data-name="Layer 1"><g id="Browser"><path class="cls-1" d="M0,231.05v6c0,2.21,1.79,11,4,11H198c2.21,0,4-8.79,4-11v-6Z"/><rect class="cls-2" x="1" y="1" width="200" height="233.05" rx="2" ry="2"/><path class="cls-3" d="M199,235.05H3a3,3,0,0,1-3-3V3A3,3,0,0,1,3,0H199a3,3,0,0,1,3,3V232.05A3,3,0,0,1,199,235.05ZM3,2A1,1,0,0,0,2,3V232.05a1,1,0,0,0,1,1H199a1,1,0,0,0,1-1V3a1,1,0,0,0-1-1Z"/><path class="cls-4" d="M2,15V3A1,1,0,0,1,3,2H199a1,1,0,0,1,1,1V15Z"/><circle class="cls-3" cx="13.45" cy="8.65" r="2.5"/><circle class="cls-3" cx="24.45" cy="8.65" r="2.5"/><circle class="cls-3" cx="35.45" cy="8.65" r="2.5"/></g><rect class="cls-5" x="11.95" y="33.73" width="49.06" height="6"/><rect class="cls-6" x="46.46" y="23.69" width="14.55" height="2"/><rect class="cls-3" x="64.68" y="23.69" width="14.55" height="2"/><rect class="cls-3" x="83.27" y="23.69" width="14.55" height="2"/><rect class="cls-3" x="178.94" y="23.69" width="14.55" height="2"/><rect class="cls-7" x="11.95" y="22.08" width="30" height="5.88"/><rect class="cls-8" x="11.45" y="96.61" width="26.29" height="7" rx="2" ry="2"/><rect class="cls-9" x="165.8" y="96.61" width="26.29" height="7" rx="2" ry="2"/><rect class="cls-3" x="35.62" y="57.72" width="25" height="25"/><rect class="cls-3" x="71.54" y="57.72" width="25" height="25"/><rect class="cls-10" x="107.46" y="57.72" width="25" height="25"/><rect class="cls-3" x="143.38" y="57.72" width="25" height="25"/><text class="cls-11" transform="translate(147.8 88.66)">BANNER</text><text class="cls-11" transform="translate(107.54 88.66)">INTERSTITIAL</text><text class="cls-11" transform="translate(78.2 88.66)">VIDEO</text><text class="cls-11" transform="translate(31.46 88.66)">REWARDED VIDEO</text><g id="_10.2017" data-name="10.2017"><g id="AdFormats1440"><g id="icon"><path id="base" class="cls-2" d="M88.67,80.48H79.41A1.37,1.37,0,0,1,78,79.11V61.31a1.38,1.38,0,0,1,1.37-1.37h9.26A1.38,1.38,0,0,1,90,61.31v17.8A1.37,1.37,0,0,1,88.67,80.48Z"/><rect id="screen" class="cls-12" x="78.96" y="62.94" width="10.15" height="14.31"/><g id="play-circle---FontAwesome" class="cls-13"><text class="cls-14" transform="translate(82.06 71.71)"></text></g><circle id="nav" class="cls-15" cx="84.04" cy="78.87" r="0.69"/><path id="speaker" class="cls-15" d="M85.33,61.79H82.75a.34.34,0,0,1-.33-.35.36.36,0,0,1,.33-.34h2.58a.33.33,0,0,1,.32.34A.31.31,0,0,1,85.33,61.79Z"/></g></g></g><g id="_10.2017-2" data-name="10.2017"><g id="AdFormats1440-2" data-name="AdFormats1440"><g id="Body"><g id="Interstitial"><g id="icon-2" data-name="icon"><path id="base-2" data-name="base" class="cls-2" d="M124.59,80.49h-9.26A1.38,1.38,0,0,1,114,79.12V61.31a1.37,1.37,0,0,1,1.37-1.37h9.26A1.37,1.37,0,0,1,126,61.31V79.12A1.37,1.37,0,0,1,124.59,80.49Z"/><rect id="screen-2" data-name="screen" class="cls-12" x="114.88" y="62.94" width="10.16" height="14.31"/><rect id="screen-3" data-name="screen" class="cls-16" x="115.57" y="63.63" width="8.77" height="12.93"/><circle id="nav-2" data-name="nav" class="cls-15" cx="119.96" cy="78.87" r="0.69"/><path id="speaker-2" data-name="speaker" class="cls-15" d="M121.25,61.78h-2.58a.33.33,0,0,1-.33-.34.37.37,0,0,1,.33-.35h2.58a.34.34,0,0,1,.33.35A.31.31,0,0,1,121.25,61.78Z"/></g></g></g></g></g></g><g id="Layer_3" data-name="Layer 3"><g id="_10.2017-3" data-name="10.2017"><g id="AdFormats1440-3" data-name="AdFormats1440"><g id="icon-3" data-name="icon"><path id="base-3" data-name="base" class="cls-2" d="M160.51,80.47h-9.25a1.37,1.37,0,0,1-1.37-1.37V61.32A1.37,1.37,0,0,1,151.26,60h9.25a1.38,1.38,0,0,1,1.37,1.37V79.1A1.37,1.37,0,0,1,160.51,80.47Z"/><rect id="screen-4" data-name="screen" class="cls-12" x="150.81" y="62.95" width="10.15" height="14.3"/><rect id="screen-5" data-name="screen" class="cls-16" x="151.5" y="73.79" width="8.76" height="2.77"/><circle id="nav-3" data-name="nav" class="cls-15" cx="155.88" cy="78.86" r="0.69"/><path id="speaker-3" data-name="speaker" class="cls-15" d="M157.17,61.8h-2.58a.34.34,0,0,1-.32-.35.37.37,0,0,1,.32-.35h2.58a.34.34,0,0,1,.33.35A.32.32,0,0,1,157.17,61.8Z"/></g></g></g><g id="_10.2017-4" data-name="10.2017"><g id="AdFormats1440-4" data-name="AdFormats1440"><g id="icon-4" data-name="icon"><path id="base-4" data-name="base" class="cls-2" d="M52.91,80.85H43.32a1.42,1.42,0,0,1-1.42-1.42V61a1.43,1.43,0,0,1,1.42-1.42h9.59A1.42,1.42,0,0,1,54.33,61V79.43A1.41,1.41,0,0,1,52.91,80.85Z"/><rect id="screen-6" data-name="screen" class="cls-12" x="42.86" y="62.68" width="10.52" height="14.83"/><g id="_1494863482_Crown" data-name="1494863482_Crown"><path id="Shape" class="cls-16" d="M50.22,68.75a.52.52,0,0,0-.52.52.46.46,0,0,0,0,.21L49,69.8l-.62-1.12a.52.52,0,0,0-.25-1,.53.53,0,0,0-.53.53.52.52,0,0,0,.27.45l-.62,1.12-.74-.32a.65.65,0,0,0,0-.21.52.52,0,0,0-.53-.52.52.52,0,0,0-.52.52.52.52,0,0,0,.52.53l.12,0,.41,1.77v.35a.35.35,0,0,0,.35.34h2.45a.35.35,0,0,0,.36-.34v-.35l.4-1.77.12,0a.53.53,0,0,0,.53-.53A.52.52,0,0,0,50.22,68.75Zm-2.1-.7a.18.18,0,0,1,.17.18.18.18,0,0,1-.17.17.18.18,0,0,1-.18-.17A.18.18,0,0,1,48.12,68.05Zm-2.28,1.22A.18.18,0,0,1,46,69.1a.18.18,0,0,1,.18.17.18.18,0,0,1-.18.18A.18.18,0,0,1,45.84,69.27Zm3.5,2.63H46.89v-.35h2.45Zm.08-.7h-2.6l-.31-1.33.59.25a.35.35,0,0,0,.14,0,.38.38,0,0,0,.31-.18l.57-1,.57,1a.35.35,0,0,0,.3.18.32.32,0,0,0,.14,0l.59-.25Zm.8-1.75a.17.17,0,0,1-.17-.18.17.17,0,0,1,.17-.17.18.18,0,0,1,.18.17A.18.18,0,0,1,50.22,69.45Z"/></g><circle id="nav-4" data-name="nav" class="cls-15" cx="48.12" cy="79.18" r="0.72"/><path id="speaker-4" data-name="speaker" class="cls-15" d="M49.46,61.48H46.78a.35.35,0,0,1-.34-.35.38.38,0,0,1,.34-.36h2.68a.35.35,0,0,1,.33.36A.32.32,0,0,1,49.46,61.48Z"/></g></g></g></g></g></svg>